<?xml version="1.0" encoding="UTF-8" standalone="no"?>
<svg xmlns="http://www.w3.org/2000/svg" xmlns:xlink="http://www.w3.org/1999/xlink" class="card" face="7H" height="3.5in" preserveAspectRatio="none" viewBox="-120 -168 240 336" width="2.5in"><clipPath id="QH" clipPathUnits="objectBoundingBox"><path d="M0 -0.103v1.2h0.58l-0.18 -0.5l0.18 -0.2l-0.18 -0.5z"></path></clipPath><defs><symbol id="SH7" viewBox="-600 -600 1200 1200" preserveAspectRatio="xMinYMid"><rect x="-500" y="-500" width="1000" height="1000" opacity="0"></rect><path d="M0 -300A230 230 0 0 1 460 -150C400 0 200 300 0 500C-200 300 -400 0 -460 -150A230 230 0 0 1 0 -300Z" fill="red"></path></symbol><symbol id="VH7" viewBox="-500 -500 1000 1000" preserveAspectRatio="xMinYMid"><path d="M-265 -320L-265 -460L265 -460C135 -200 -90 100 -90 460" stroke="red" stroke-width="80" stroke-linecap="square" stroke-miterlimit="1.5" fill="none"></path></symbol></defs><rect width="239" height="335" x="-119.5" y="-167.5" rx="12" ry="12" fill="white" stroke="black"></rect><use xlink:href="#VH7" height="70" width="70" x="-122" y="-156"></use><use xlink:href="#SH7" height="56.946" width="56.946" x="-115.473" y="-81"></use><use xlink:href="#SH7" height="40" width="40" x="-59.668" y="-108.218"></use><use xlink:href="#SH7" height="40" width="40" x="19.668" y="-108.218"></use><use xlink:href="#SH7" height="40" width="40" x="-59.668" y="-49.406"></use><use xlink:href="#SH7" height="40" width="40" x="-20" y="-20" clip-path="url(#QH)"></use><g transform="rotate(180)"><use xlink:href="#VH7" height="70" width="70" x="-122" y="-156"></use><use xlink:href="#SH7" height="56.946" width="56.946" x="-115.473" y="-81"></use><use xlink:href="#SH7" height="40" width="40" x="-59.668" y="-108.218"></use><use xlink:href="#SH7" height="40" width="40" x="19.668" y="-108.218"></use><use xlink:href="#SH7" height="40" width="40" x="-59.668" y="-49.406"></use><use xlink:href="#SH7" height="40" width="40" x="-20" y="-20" clip-path="url(#QH)"></use></g></svg>